<svg width="59" height="53" viewBox="0 0 59 53" fill="none" xmlns="http://www.w3.org/2000/svg">
<path d="M26.3958 33.5417L38.5 25.8125C39.375 25.2292 39.8125 24.4028 39.8125 23.3333C39.8125 22.2639 39.375 21.4375 38.5 20.8542L26.3958 13.125C25.4236 12.4931 24.4271 12.4444 23.4062 12.9792C22.3854 13.5139 21.875 14.3646 21.875 15.5312V31.1354C21.875 32.3021 22.3854 33.1528 23.4062 33.6875C24.4271 34.2222 25.4236 34.1736 26.3958 33.5417ZM5.83333 46.6667C4.22917 46.6667 2.85639 46.096 1.715 44.9546C0.573611 43.8132 0.00194444 42.4394 0 40.8333V5.83333C0 4.22917 0.571667 2.85639 1.715 1.715C2.85833 0.573611 4.23111 0.00194444 5.83333 0H52.5C54.1042 0 55.4779 0.571667 56.6213 1.715C57.7646 2.85833 58.3353 4.23111 58.3333 5.83333V40.8333C58.3333 42.4375 57.7626 43.8113 56.6213 44.9546C55.4799 46.0979 54.1061 46.6686 52.5 46.6667H40.8333V49.5833C40.8333 50.4097 40.5533 51.1029 39.9933 51.6629C39.4333 52.2229 38.7411 52.5019 37.9167 52.5H20.4167C19.5903 52.5 18.8981 52.22 18.34 51.66C17.7819 51.1 17.5019 50.4078 17.5 49.5833V46.6667H5.83333ZM5.83333 40.8333H52.5V5.83333H5.83333V40.8333Z" fill="white"/>
</svg>
