<svg width="65" height="47" viewBox="0 0 65 47" fill="none" xmlns="http://www.w3.org/2000/svg">
<path d="M40.8333 0C37.7391 0 34.7717 1.22916 32.5838 3.41709C30.3958 5.60501 29.1667 8.57247 29.1667 11.6667C29.1667 14.7609 30.3958 17.7283 32.5838 19.9162C34.7717 22.1042 37.7391 23.3333 40.8333 23.3333C43.9275 23.3333 46.895 22.1042 49.0829 19.9162C51.2708 17.7283 52.5 14.7609 52.5 11.6667C52.5 8.57247 51.2708 5.60501 49.0829 3.41709C46.895 1.22916 43.9275 0 40.8333 0ZM40.8333 5.54167C41.6377 5.54167 42.4342 5.70009 43.1773 6.00791C43.9204 6.31571 44.5956 6.76688 45.1644 7.33564C45.7331 7.9044 46.1843 8.57961 46.4921 9.32273C46.7999 10.0659 46.9583 10.8623 46.9583 11.6667C46.9583 12.471 46.7999 13.2675 46.4921 14.0106C46.1843 14.7537 45.7331 15.4289 45.1644 15.9977C44.5956 16.5665 43.9204 17.0176 43.1773 17.3254C42.4342 17.6332 41.6377 17.7917 40.8333 17.7917C40.029 17.7917 39.2325 17.6332 38.4894 17.3254C37.7463 17.0176 37.0711 16.5665 36.5023 15.9977C35.9335 15.4289 35.4824 14.7537 35.1746 14.0106C34.8668 13.2675 34.7083 12.471 34.7083 11.6667C34.7083 10.0422 35.3536 8.4843 36.5023 7.33564C37.651 6.18698 39.2089 5.54167 40.8333 5.54167ZM8.75 8.75V17.5H0V23.3333H8.75V32.0833H14.5833V23.3333H23.3333V17.5H14.5833V8.75H8.75ZM40.8333 26.25C33.0458 26.25 17.5 30.1292 17.5 37.9167V46.6667H64.1667V37.9167C64.1667 30.1292 48.6208 26.25 40.8333 26.25ZM40.8333 31.7917C49.4958 31.7917 58.625 36.05 58.625 37.9167V41.125H23.0417V37.9167C23.0417 36.05 32.0833 31.7917 40.8333 31.7917Z" fill="white"/>
</svg>
