<svg width="70" height="62" viewBox="0 0 70 62" fill="none" xmlns="http://www.w3.org/2000/svg">
<path d="M6.5625 3.28125V54.6875H66.7188C67.589 54.6875 68.4236 55.0332 69.0389 55.6486C69.6543 56.2639 70 57.0985 70 57.9688C70 58.839 69.6543 59.6736 69.0389 60.2889C68.4236 60.9043 67.589 61.25 66.7188 61.25H3.28125C2.41101 61.25 1.57641 60.9043 0.961056 60.2889C0.345702 59.6736 0 58.839 0 57.9688L0 3.28125C0 2.41101 0.345702 1.57641 0.961056 0.961056C1.57641 0.345702 2.41101 0 3.28125 0C4.15149 0 4.98609 0.345702 5.60144 0.961056C6.2168 1.57641 6.5625 2.41101 6.5625 3.28125ZM69.0375 14.35L46.0687 37.3187C45.4535 37.9332 44.6195 38.2784 43.75 38.2784C42.8805 38.2784 42.0465 37.9332 41.4313 37.3187L30.625 26.5125L18.725 38.4125C18.1031 38.9928 17.2802 39.3089 16.4297 39.2943C15.5792 39.2796 14.7677 38.9352 14.1662 38.3338C13.5648 37.7323 13.2204 36.9208 13.2057 36.0703C13.1911 35.2198 13.5072 34.3969 14.0875 33.775L28.3062 19.5562C28.9215 18.9418 29.7555 18.5966 30.625 18.5966C31.4945 18.5966 32.3285 18.9418 32.9438 19.5562L43.75 30.3625L64.4 9.7125C65.0219 9.13219 65.8448 8.81605 66.6953 8.83074C67.5458 8.84543 68.3573 9.18981 68.9587 9.79125C69.5602 10.3927 69.9046 11.2042 69.9193 12.0547C69.9339 12.9052 69.6178 13.7281 69.0375 14.35Z" fill="white"/>
</svg>
