<svg width="20" height="21" viewBox="0 0 20 21" fill="none" xmlns="http://www.w3.org/2000/svg">
<path d="M8.33333 0L15.9354 2.375C16.1474 2.44119 16.3328 2.57342 16.4643 2.75238C16.5959 2.93135 16.6668 3.14768 16.6667 3.36979V5.20833H18.75C19.0263 5.20833 19.2912 5.31808 19.4866 5.51343C19.6819 5.70878 19.7917 5.97373 19.7917 6.25V14.5833C19.7917 14.8596 19.6819 15.1246 19.4866 15.3199C19.2912 15.5153 19.0263 15.625 18.75 15.625L15.3958 15.626C14.9927 16.1573 14.5031 16.626 13.9375 17.0115L8.33333 20.8333L2.72917 17.0125C1.88804 16.439 1.19974 15.6687 0.724104 14.7687C0.248467 13.8686 -0.00010544 12.8659 3.35519e-08 11.8479V3.36979C0.000125631 3.14786 0.0711319 2.93176 0.202669 2.75301C0.334206 2.57425 0.519398 2.44218 0.73125 2.37604L8.33333 0ZM8.33333 2.18125L2.08333 4.13542V11.8479C2.08318 12.4857 2.22943 13.1149 2.5108 13.6872C2.79217 14.2595 3.20115 14.7596 3.70625 15.149L3.90312 15.2906L8.33333 18.3115L12.2729 15.625H7.29167C7.0154 15.625 6.75045 15.5153 6.5551 15.3199C6.35975 15.1246 6.25 14.8596 6.25 14.5833V6.25C6.25 5.97373 6.35975 5.70878 6.5551 5.51343C6.75045 5.31808 7.0154 5.20833 7.29167 5.20833H14.5833V4.13542L8.33333 2.18125ZM8.33333 10.4167V13.5417H17.7083V10.4167H8.33333ZM8.33333 8.33333H17.7083V7.29167H8.33333V8.33333Z" fill="#FAD200"/>
</svg>
