<svg xmlns="http://www.w3.org/2000/svg" xmlns:xlink="http://www.w3.org/1999/xlink" width="56" height="56" viewBox="0 0 56 56">
  <defs>
    <filter id="Ellipse_21" x="0" y="0" width="56" height="56" filterUnits="userSpaceOnUse">
      <feOffset dy="3" input="SourceAlpha"/>
      <feGaussianBlur stdDeviation="3" result="blur"/>
      <feFlood flood-opacity="0.4"/>
      <feComposite operator="in" in2="blur"/>
      <feComposite in="SourceGraphic"/>
    </filter>
  </defs>
  <g id="Group_92" data-name="Group 92" transform="translate(-154 -170)">
    <g id="Path_203" data-name="Path 203" transform="translate(154.906 172.075)" fill="#fff">
      <path d="M 29.32299613952637 48.42485809326172 C 26.43384552001953 48.42485809326172 23.37270545959473 47.72898864746094 20.22457504272461 46.3565788269043 C 17.18484497070313 45.03142547607422 14.14760589599609 43.08111572265625 11.44120597839355 40.71650695800781 C 8.640615463256836 38.26960754394531 6.260055541992188 35.47432708740234 4.365655899047852 32.40829849243164 C 2.362115621566772 29.16564750671387 1.012705683708191 25.78714752197266 0.3549056947231293 22.36662673950195 C -0.2420643121004105 19.26240730285645 -0.1854643076658249 16.28840827941895 0.5231357216835022 13.52724742889404 C 1.169195652008057 11.00979709625244 2.341845750808716 8.710257530212402 4.008535861968994 6.692517280578613 C 7.523995876312256 2.436577320098877 13.05114555358887 -0.2072626650333405 18.43304634094238 -0.2072626650333405 C 19.80496597290039 -0.2072626650333405 21.12806510925293 -0.03381266817450523 22.3655948638916 0.3082873225212097 C 24.45071601867676 0.8846773505210876 27.11744499206543 1.39778733253479 29.94074630737305 1.941027283668518 C 38.599365234375 3.607037305831909 49.37531661987305 5.68045711517334 52.68032455444336 11.19513702392578 C 53.82356643676758 13.10273742675781 53.99533462524414 15.26748752593994 53.20542526245117 17.81307792663574 C 52.84650421142578 18.96975708007813 52.49528503417969 20.12594795227051 52.15563583374023 21.24405670166016 C 50.27074432373047 27.44906806945801 48.49037551879883 33.3099479675293 45.78402709960938 37.9561882019043 C 42.80900573730469 43.06365585327148 39.0186767578125 46.18239593505859 33.85563659667969 47.77104568481445 C 32.44568634033203 48.20488739013672 30.92068481445313 48.42485809326172 29.32299613952637 48.42485809326172 Z" stroke="none"/>
      <path d="M 18.43303680419922 0.2927360534667969 C 13.19641494750977 0.2927360534667969 7.816974639892578 2.867008209228516 4.394023895263672 7.010936737060547 C 2.774505615234375 8.971588134765625 1.635097503662109 11.20580673217773 1.0074462890625 13.65153884887695 C 0.3173370361328125 16.34063720703125 0.2629852294921875 19.24103736877441 0.845916748046875 22.27219772338867 C 1.492195129394531 25.63284683227539 2.819515228271484 28.95469665527344 4.791004180908203 32.14547729492188 C 6.659126281738281 35.1689567565918 9.007255554199219 37.92597961425781 11.77017593383789 40.3399772644043 C 14.4384651184082 42.67128753662109 17.43104553222656 44.59330749511719 20.42438507080078 45.89823913574219 C 23.50910568237305 47.24300765991211 26.50302505493164 47.92485809326172 29.32299613952637 47.92485809326172 C 30.87079620361328 47.92485809326172 32.3463134765625 47.71232604980469 33.70858764648438 47.29315567016602 C 38.74426651000977 45.74369812011719 42.44403457641602 42.69683837890625 45.35197448730469 37.70451736450195 C 48.02894592285156 33.10873794555664 49.80106735229492 27.27498817443848 51.6772346496582 21.09870719909668 C 52.01709747314453 19.97989654541016 52.36852645874023 18.822998046875 52.72788619995117 17.66489791870117 C 53.47321701049805 15.26295852661133 53.31736755371094 13.23075866699219 52.25144577026367 11.45216751098633 C 50.85738372802734 9.126068115234375 47.91349411010742 7.222488403320313 43.25154495239258 5.632625579833984 C 39.07108688354492 4.206977844238281 34.17021560668945 3.263996124267578 29.84626579284668 2.432018280029297 C 27.01290512084961 1.886848449707031 24.33668518066406 1.371906280517578 22.23236465454102 0.7902069091796875 C 21.03824615478516 0.4601058959960938 19.75996398925781 0.2927360534667969 18.43303680419922 0.2927360534667969 M 18.43304061889648 -0.7072639465332031 C 19.83103561401367 -0.7072639465332031 21.20049285888672 -0.5325393676757813 22.49880599975586 -0.1736412048339844 C 33.03450775146484 2.738765716552734 58.03973388671875 3.920875549316406 53.68296432495117 17.96125793457031 C 49.32618713378906 32.00162506103516 46.59039688110352 44.37573623657227 34.00267791748047 48.24893569946289 C 32.51295471191406 48.70732116699219 30.94084930419922 48.92485809326172 29.32299423217773 48.92485809326172 C 17.27042770385742 48.92485809326172 2.633205413818359 36.86126708984375 -0.1360931396484375 22.4610481262207 C -2.890064239501953 8.140571594238281 8.486434936523438 -0.7072639465332031 18.43304061889648 -0.7072639465332031 Z" stroke="none"/>
    </g>
    <g transform="matrix(1, 0, 0, 1, 154, 170)" filter="url(#Ellipse_21)">
      <g id="Ellipse_21-2" data-name="Ellipse 21" transform="translate(9 6)" fill="#fff" stroke="#000" stroke-width="1">
        <circle cx="19" cy="19" r="19" stroke="none"/>
        <circle cx="19" cy="19" r="18.5" fill="none"/>
      </g>
    </g>
    <g id="Icon_feather-upload-cloud" data-name="Icon feather-upload-cloud" transform="translate(172.28 187.74)">
      <path id="Path_197" data-name="Path 197" d="M18.874,21.437,15.437,18,12,21.437" transform="translate(-5.98 -10.268)" fill="none" stroke="#000" stroke-linecap="round" stroke-linejoin="round" stroke-width="1.5"/>
      <path id="Path_198" data-name="Path 198" d="M18,18v7.733" transform="translate(-8.543 -10.268)" fill="none" stroke="#000" stroke-linecap="round" stroke-linejoin="round" stroke-width="1.5"/>
      <path id="Path_199" data-name="Path 199" d="M18.158,17.726A4.3,4.3,0,0,0,16.1,9.657H15.021A6.874,6.874,0,1,0,3.215,15.93" transform="translate(-1.492 -4.503)" fill="none" stroke="#000" stroke-linecap="round" stroke-linejoin="round" stroke-width="1.5"/>
      <path id="Path_200" data-name="Path 200" d="M18.874,21.437,15.437,18,12,21.437" transform="translate(-5.98 -10.268)" fill="none" stroke="#000" stroke-linecap="round" stroke-linejoin="round" stroke-width="1.5"/>
    </g>
  </g>
</svg>
