<svg width="31" height="25" viewBox="0 0 31 25" fill="none" xmlns="http://www.w3.org/2000/svg">
<path d="M0.917969 12.4997C0.917969 7.0003 0.917969 4.24988 2.62714 2.54217C4.3363 0.834466 7.08526 0.833008 12.5846 0.833008H18.418C23.9173 0.833008 26.6678 0.833008 28.3755 2.54217C30.0832 4.25134 30.0846 7.0003 30.0846 12.4997C30.0846 17.999 30.0846 20.7495 28.3755 22.4572C26.6663 24.1649 23.9173 24.1663 18.418 24.1663H12.5846C7.08526 24.1663 4.33484 24.1663 2.62714 22.4572C0.919427 20.748 0.917969 17.999 0.917969 12.4997Z" stroke="white" stroke-width="1.5"/>
<path d="M12.5846 18.333H6.7513M18.418 18.333H16.2305M0.917969 9.58301H30.0846" stroke="white" stroke-width="1.5" stroke-linecap="round"/>
</svg>
