<svg width="26" height="26" viewBox="0 0 26 26" fill="none" xmlns="http://www.w3.org/2000/svg">
<path d="M15.9154 24.6668L15.5467 24.178C14.7184 23.0767 14.5119 21.3932 15.0369 20.0002M10.082 24.6668L10.4507 24.178C11.279 23.0767 11.4855 21.3932 10.9605 20.0002M7.16536 24.6668H18.832M15.332 1.3335H10.6654C6.8387 1.3335 4.92653 1.3335 3.57086 2.28316C3.06925 2.63441 2.63295 3.07071 2.2817 3.57233C1.33203 4.92683 1.33203 6.84016 1.33203 10.6668C1.33203 14.4935 1.33203 16.4057 2.2817 17.7613C2.63295 18.2629 3.06925 18.6993 3.57086 19.0505C4.92536 20.0002 6.8387 20.0002 10.6654 20.0002H15.332C19.1587 20.0002 21.0709 20.0002 22.4265 19.0505C22.9282 18.6993 23.3645 18.2629 23.7157 17.7613C24.6654 16.4068 24.6654 14.4935 24.6654 10.6668C24.6654 6.84016 24.6654 4.928 23.7157 3.57233C23.3645 3.07071 22.9282 2.63441 22.4265 2.28316C21.072 1.3335 19.1587 1.3335 15.332 1.3335Z" stroke="white" stroke-width="1.5" stroke-linecap="round" stroke-linejoin="round"/>
<path d="M8.33203 15.3333C10.4764 12.3058 15.4709 12.1402 17.6654 15.3333M15.332 8.33333C15.332 8.95217 15.0862 9.54566 14.6486 9.98325C14.211 10.4208 13.6175 10.6667 12.9987 10.6667C12.3799 10.6667 11.7864 10.4208 11.3488 9.98325C10.9112 9.54566 10.6654 8.95217 10.6654 8.33333C10.6654 7.71449 10.9112 7.121 11.3488 6.68342C11.7864 6.24583 12.3799 6 12.9987 6C13.6175 6 14.211 6.24583 14.6486 6.68342C15.0862 7.121 15.332 7.71449 15.332 8.33333Z" stroke="white" stroke-width="1.5" stroke-linecap="round" stroke-linejoin="round"/>
</svg>
