<svg xmlns="http://www.w3.org/2000/svg" width="49.597" height="52.904" viewBox="0 0 49.597 52.904">
  <path id="Icon_metro-calendar" data-name="Icon metro-calendar" d="M19.1,21.767h6.613V28.38H19.1Zm9.919,0h6.613V28.38H29.023Zm9.919,0h6.613V28.38H38.942ZM9.184,41.606H15.8v6.613H9.184Zm9.919,0h6.613v6.613H19.1Zm9.919,0h6.613v6.613H29.023ZM19.1,31.686h6.613V38.3H19.1Zm9.919,0h6.613V38.3H29.023Zm9.919,0h6.613V38.3H38.942Zm-29.758,0H15.8V38.3H9.184ZM45.555,1.928V5.235H38.942V1.928H15.8V5.235H9.184V1.928H2.571v52.9h49.6V1.928H45.555Zm3.306,49.6H5.877V15.154H48.862Z" transform="translate(-2.571 -1.928)" fill="ivory"/>
</svg>
