<svg width="176" height="32" viewBox="0 0 176 32" fill="none" xmlns="http://www.w3.org/2000/svg">
<path d="M0 32H176L147.294 16.3137L176 0H0V32Z" fill="#06BF00"/>
<path d="M11.2751 17.9248H7.81757V16.5294H11.2751C11.9447 16.5294 12.4869 16.4227 12.9016 16.2094C13.3164 15.9961 13.6186 15.6998 13.8083 15.3206C14.0038 14.9413 14.1016 14.5088 14.1016 14.0229C14.1016 13.5785 14.0038 13.1607 13.8083 12.7696C13.6186 12.3785 13.3164 12.0645 12.9016 11.8275C12.4869 11.5845 11.9447 11.4631 11.2751 11.4631H8.21754V23H6.50211V10.0587H11.2751C12.2528 10.0587 13.0794 10.2276 13.7549 10.5653C14.4304 10.9031 14.943 11.3712 15.2926 11.9697C15.6422 12.5622 15.817 13.2407 15.817 14.0051C15.817 14.8347 15.6422 15.5428 15.2926 16.1294C14.943 16.716 14.4304 17.1634 13.7549 17.4715C13.0794 17.7737 12.2528 17.9248 11.2751 17.9248ZM23.6209 20.7779V13.3829H25.2741V23H23.7009L23.6209 20.7779ZM23.932 18.7514L24.6164 18.7336C24.6164 19.3736 24.5482 19.9661 24.4119 20.5113C24.2816 21.0505 24.0682 21.5186 23.772 21.9156C23.4757 22.3126 23.0876 22.6237 22.6076 22.8489C22.1276 23.0681 21.544 23.1778 20.8566 23.1778C20.3885 23.1778 19.9589 23.1096 19.5678 22.9733C19.1827 22.837 18.8508 22.6267 18.5723 22.3423C18.2939 22.0578 18.0776 21.6875 17.9235 21.2312C17.7754 20.775 17.7013 20.2269 17.7013 19.5869V13.3829H19.3456V19.6047C19.3456 20.0373 19.393 20.3957 19.4878 20.6802C19.5886 20.9587 19.7219 21.1809 19.8878 21.3468C20.0596 21.5068 20.2493 21.6194 20.4567 21.6845C20.67 21.7497 20.8892 21.7823 21.1144 21.7823C21.8136 21.7823 22.3676 21.649 22.7765 21.3823C23.1853 21.1098 23.4787 20.7453 23.6564 20.2891C23.8401 19.8269 23.932 19.3143 23.932 18.7514ZM29.4249 14.8939V23H27.7806V13.3829H29.3805L29.4249 14.8939ZM32.4291 13.3296L32.4202 14.8584C32.2839 14.8287 32.1536 14.811 32.0292 14.805C31.9106 14.7932 31.7744 14.7873 31.6203 14.7873C31.2411 14.7873 30.9063 14.8465 30.6159 14.965C30.3256 15.0835 30.0797 15.2495 29.8782 15.4628C29.6767 15.6761 29.5167 15.9309 29.3982 16.2272C29.2856 16.5175 29.2116 16.8375 29.176 17.1871L28.7138 17.4537C28.7138 16.873 28.7701 16.3279 28.8827 15.8183C29.0012 15.3087 29.182 14.8584 29.4249 14.4673C29.6678 14.0703 29.976 13.7622 30.3493 13.5429C30.7285 13.3177 31.1788 13.2052 31.7003 13.2052C31.8188 13.2052 31.9551 13.22 32.1091 13.2496C32.2632 13.2733 32.3699 13.3 32.4291 13.3296ZM37.6199 21.8268C38.0109 21.8268 38.3724 21.7468 38.7042 21.5868C39.0361 21.4268 39.3086 21.2075 39.5219 20.929C39.7353 20.6446 39.8567 20.3217 39.8864 19.9602H41.4507C41.4211 20.5291 41.2285 21.0594 40.873 21.5512C40.5234 22.0371 40.0641 22.4312 39.4953 22.7334C38.9264 23.0296 38.3013 23.1778 37.6199 23.1778C36.8969 23.1778 36.2659 23.0504 35.7267 22.7956C35.1934 22.5408 34.749 22.1912 34.3934 21.7468C34.0438 21.3023 33.7801 20.7928 33.6024 20.218C33.4305 19.6373 33.3446 19.024 33.3446 18.3781V18.0048C33.3446 17.3589 33.4305 16.7486 33.6024 16.1738C33.7801 15.5931 34.0438 15.0806 34.3934 14.6362C34.749 14.1917 35.1934 13.8421 35.7267 13.5873C36.2659 13.3326 36.8969 13.2052 37.6199 13.2052C38.3724 13.2052 39.0301 13.3592 39.593 13.6673C40.156 13.9695 40.5974 14.3843 40.9174 14.9117C41.2433 15.4331 41.4211 16.0257 41.4507 16.6893H39.8864C39.8567 16.2923 39.7441 15.9338 39.5486 15.6139C39.359 15.2939 39.0983 15.0391 38.7664 14.8495C38.4405 14.6539 38.0583 14.5562 37.6199 14.5562C37.1162 14.5562 36.6925 14.6569 36.3488 14.8584C36.0111 15.0539 35.7415 15.3206 35.54 15.6583C35.3445 15.9901 35.2023 16.3605 35.1134 16.7693C35.0304 17.1723 34.9889 17.5841 34.9889 18.0048V18.3781C34.9889 18.7988 35.0304 19.2136 35.1134 19.6225C35.1963 20.0313 35.3356 20.4017 35.5311 20.7335C35.7326 21.0653 36.0022 21.332 36.34 21.5334C36.6836 21.729 37.1103 21.8268 37.6199 21.8268ZM44.9438 9.34766V23H43.2994V9.34766H44.9438ZM44.5527 17.827L43.8683 17.8004C43.8742 17.1426 43.972 16.5353 44.1616 15.9783C44.3512 15.4154 44.6179 14.9265 44.9615 14.5117C45.3052 14.0969 45.7141 13.777 46.1881 13.5518C46.6681 13.3207 47.1984 13.2052 47.7791 13.2052C48.2532 13.2052 48.6798 13.2703 49.059 13.4007C49.4383 13.5251 49.7612 13.7266 50.0278 14.0051C50.3004 14.2836 50.5078 14.6451 50.65 15.0895C50.7922 15.5279 50.8633 16.0642 50.8633 16.6982V23H49.2101V16.6805C49.2101 16.1768 49.1361 15.7739 48.9879 15.4717C48.8398 15.1635 48.6235 14.9413 48.3391 14.805C48.0547 14.6628 47.7051 14.5917 47.2903 14.5917C46.8814 14.5917 46.5081 14.6776 46.1703 14.8495C45.8385 15.0213 45.5511 15.2583 45.3082 15.5605C45.0712 15.8627 44.8845 16.2094 44.7482 16.6005C44.6179 16.9856 44.5527 17.3945 44.5527 17.827ZM58.9961 21.3557V16.4049C58.9961 16.0257 58.9191 15.6968 58.765 15.4183C58.6169 15.1339 58.3917 14.9147 58.0895 14.7606C57.7873 14.6065 57.414 14.5295 56.9696 14.5295C56.5548 14.5295 56.1904 14.6006 55.8763 14.7428C55.5682 14.885 55.3252 15.0717 55.1475 15.3028C54.9756 15.5339 54.8897 15.7827 54.8897 16.0494H53.2454C53.2454 15.7057 53.3343 15.365 53.512 15.0272C53.6898 14.6895 53.9446 14.3843 54.2764 14.1118C54.6142 13.8333 55.0171 13.614 55.4852 13.454C55.9593 13.2881 56.4866 13.2052 57.0673 13.2052C57.7665 13.2052 58.3828 13.3237 58.9161 13.5607C59.4553 13.7977 59.876 14.1562 60.1782 14.6362C60.4863 15.1102 60.6404 15.7057 60.6404 16.4227V20.9024C60.6404 21.2224 60.6671 21.5631 60.7204 21.9245C60.7797 22.286 60.8656 22.5971 60.9782 22.8578V23H59.2627C59.1798 22.8104 59.1146 22.5586 59.0672 22.2445C59.0198 21.9245 58.9961 21.6282 58.9961 21.3557ZM59.2805 17.1693L59.2983 18.3248H57.6362C57.1681 18.3248 56.7503 18.3633 56.3829 18.4403C56.0156 18.5114 55.7074 18.6211 55.4586 18.7692C55.2097 18.9173 55.0201 19.104 54.8897 19.3292C54.7594 19.5484 54.6942 19.8062 54.6942 20.1024C54.6942 20.4046 54.7623 20.6802 54.8986 20.929C55.0349 21.1779 55.2393 21.3764 55.5119 21.5246C55.7904 21.6668 56.1311 21.7379 56.534 21.7379C57.0377 21.7379 57.4821 21.6312 57.8673 21.4179C58.2524 21.2046 58.5576 20.9439 58.7828 20.6357C59.0139 20.3276 59.1383 20.0284 59.1561 19.738L59.8582 20.5291C59.8168 20.7779 59.7042 21.0535 59.5205 21.3557C59.3368 21.6579 59.0909 21.9482 58.7828 22.2267C58.4806 22.4993 58.1191 22.7274 57.6984 22.9111C57.2836 23.0889 56.8155 23.1778 56.2941 23.1778C55.6423 23.1778 55.0704 23.0504 54.5786 22.7956C54.0927 22.5408 53.7135 22.2001 53.4409 21.7734C53.1743 21.3409 53.041 20.8579 53.041 20.3246C53.041 19.8091 53.1417 19.3558 53.3432 18.9647C53.5446 18.5677 53.835 18.2389 54.2142 17.9781C54.5934 17.7115 55.0497 17.51 55.583 17.3737C56.1163 17.2375 56.7118 17.1693 57.3695 17.1693H59.2805ZM68.8265 20.4491C68.8265 20.2121 68.7732 19.9928 68.6665 19.7913C68.5658 19.584 68.3554 19.3973 68.0354 19.2314C67.7214 19.0595 67.2473 18.9114 66.6133 18.787C66.08 18.6744 65.5971 18.5411 65.1645 18.387C64.7379 18.2329 64.3735 18.0463 64.0713 17.827C63.775 17.6078 63.5469 17.35 63.3869 17.0538C63.2269 16.7575 63.1469 16.4108 63.1469 16.0138C63.1469 15.6346 63.2299 15.2761 63.3958 14.9384C63.5676 14.6006 63.8076 14.3014 64.1157 14.0406C64.4298 13.7799 64.806 13.5755 65.2445 13.4274C65.683 13.2792 66.1719 13.2052 66.7111 13.2052C67.4814 13.2052 68.1391 13.3414 68.6843 13.614C69.2294 13.8866 69.6472 14.251 69.9375 14.7073C70.2279 15.1576 70.373 15.6583 70.373 16.2094H68.7287C68.7287 15.9427 68.6487 15.685 68.4887 15.4361C68.3347 15.1813 68.1065 14.971 67.8043 14.805C67.5081 14.6391 67.1436 14.5562 66.7111 14.5562C66.2548 14.5562 65.8845 14.6273 65.6001 14.7695C65.3216 14.9058 65.1171 15.0806 64.9868 15.2939C64.8623 15.5072 64.8001 15.7324 64.8001 15.9694C64.8001 16.1472 64.8297 16.3072 64.889 16.4494C64.9542 16.5857 65.0668 16.713 65.2267 16.8316C65.3867 16.9441 65.6119 17.0508 65.9023 17.1515C66.1926 17.2523 66.5629 17.353 67.0133 17.4537C67.8014 17.6315 68.4502 17.8448 68.9598 18.0937C69.4694 18.3426 69.8486 18.6477 70.0975 19.0092C70.3464 19.3706 70.4708 19.8091 70.4708 20.3246C70.4708 20.7453 70.3819 21.1305 70.2042 21.4801C70.0323 21.8297 69.7805 22.1319 69.4487 22.3867C69.1228 22.6356 68.7317 22.8311 68.2754 22.9733C67.8251 23.1096 67.3184 23.1778 66.7555 23.1778C65.9082 23.1778 65.1912 23.0267 64.6046 22.7245C64.0179 22.4223 63.5735 22.0312 63.2713 21.5512C62.9691 21.0713 62.818 20.5646 62.818 20.0313H64.4712C64.4949 20.4817 64.6253 20.8402 64.8623 21.1068C65.0993 21.3675 65.3897 21.5542 65.7334 21.6668C66.0771 21.7734 66.4178 21.8268 66.7555 21.8268C67.2059 21.8268 67.5821 21.7675 67.8843 21.649C68.1925 21.5305 68.4265 21.3675 68.5865 21.1601C68.7465 20.9527 68.8265 20.7157 68.8265 20.4491ZM76.6215 23.1778C75.9519 23.1778 75.3445 23.0652 74.7994 22.84C74.2602 22.6089 73.795 22.286 73.4039 21.8712C73.0188 21.4564 72.7225 20.9646 72.5151 20.3957C72.3077 19.8269 72.204 19.2047 72.204 18.5292V18.1559C72.204 17.3737 72.3196 16.6775 72.5507 16.0672C72.7818 15.4509 73.0958 14.9295 73.4928 14.5028C73.8898 14.0762 74.3402 13.7533 74.8438 13.534C75.3475 13.3148 75.8689 13.2052 76.4082 13.2052C77.0955 13.2052 77.6881 13.3237 78.1858 13.5607C78.6895 13.7977 79.1013 14.1295 79.4213 14.5562C79.7412 14.9769 79.9783 15.4746 80.1323 16.0494C80.2864 16.6182 80.3634 17.2404 80.3634 17.9159V18.6536H73.1817V17.3115H78.7191V17.1871C78.6954 16.7605 78.6065 16.3457 78.4525 15.9427C78.3043 15.5398 78.0673 15.208 77.7414 14.9473C77.4155 14.6865 76.9711 14.5562 76.4082 14.5562C76.0349 14.5562 75.6912 14.6362 75.3771 14.7962C75.0631 14.9502 74.7935 15.1813 74.5683 15.4894C74.3431 15.7976 74.1683 16.1738 74.0439 16.6182C73.9194 17.0627 73.8572 17.5752 73.8572 18.1559V18.5292C73.8572 18.9855 73.9194 19.4151 74.0439 19.818C74.1742 20.215 74.3609 20.5646 74.6038 20.8668C74.8527 21.169 75.152 21.406 75.5016 21.5779C75.8571 21.7497 76.26 21.8356 76.7104 21.8356C77.2911 21.8356 77.7829 21.7171 78.1858 21.4801C78.5887 21.2431 78.9413 20.9261 79.2435 20.5291L80.239 21.3201C80.0316 21.6342 79.7679 21.9334 79.4479 22.2178C79.128 22.5023 78.7339 22.7334 78.2658 22.9111C77.8036 23.0889 77.2555 23.1778 76.6215 23.1778ZM88.3451 21.1335V9.34766H89.9983V23H88.4873L88.3451 21.1335ZM81.8744 18.2981V18.1115C81.8744 17.3767 81.9633 16.7101 82.1411 16.1116C82.3248 15.5072 82.5825 14.9887 82.9144 14.5562C83.2521 14.1236 83.6521 13.7918 84.1143 13.5607C84.5824 13.3237 85.1038 13.2052 85.6786 13.2052C86.283 13.2052 86.8104 13.3118 87.2607 13.5251C87.717 13.7325 88.1021 14.0377 88.4162 14.4406C88.7362 14.8376 88.988 15.3176 89.1717 15.8805C89.3554 16.4434 89.4828 17.0804 89.5539 17.7915V18.6092C89.4887 19.3143 89.3613 19.9484 89.1717 20.5113C88.988 21.0742 88.7362 21.5542 88.4162 21.9512C88.1021 22.3482 87.717 22.6534 87.2607 22.8667C86.8044 23.0741 86.2711 23.1778 85.6608 23.1778C85.0979 23.1778 84.5824 23.0563 84.1143 22.8133C83.6521 22.5704 83.2521 22.2297 82.9144 21.7912C82.5825 21.3527 82.3248 20.8372 82.1411 20.2446C81.9633 19.6462 81.8744 18.9973 81.8744 18.2981ZM83.5276 18.1115V18.2981C83.5276 18.7781 83.575 19.2284 83.6699 19.6491C83.7706 20.0698 83.9246 20.4402 84.132 20.7602C84.3394 21.0801 84.6031 21.332 84.9231 21.5157C85.2431 21.6934 85.6253 21.7823 86.0697 21.7823C86.6148 21.7823 87.0622 21.6668 87.4118 21.4357C87.7673 21.2046 88.0518 20.8994 88.2651 20.5202C88.4784 20.1409 88.6443 19.7291 88.7628 19.2847V17.1426C88.6917 16.8167 88.588 16.5027 88.4517 16.2005C88.3214 15.8924 88.1495 15.6198 87.9362 15.3828C87.7288 15.1398 87.4711 14.9473 87.1629 14.805C86.8607 14.6628 86.5022 14.5917 86.0875 14.5917C85.6371 14.5917 85.249 14.6865 84.9231 14.8761C84.6031 15.0598 84.3394 15.3146 84.132 15.6405C83.9246 15.9605 83.7706 16.3338 83.6699 16.7605C83.575 17.1812 83.5276 17.6315 83.5276 18.1115Z" fill="#FFFFF0"/>
</svg>
