<svg width="33" height="34" viewBox="0 0 33 34" fill="none" xmlns="http://www.w3.org/2000/svg">
<path d="M15.9367 0.981445L0.09375 8.60953V12.5781H32.9062V8.58848L15.9367 0.981445ZM30.7188 10.3906H2.28125V9.9841L15.9696 3.39344L30.7188 10.0052V10.3906ZM2.28125 27.8906H30.7188V30.0781H2.28125V27.8906ZM0.09375 31.7187H32.9062V33.9062H0.09375V31.7187ZM2.82812 14.7656H5.01562V25.7031H2.82812V14.7656ZM27.9844 14.7656H30.1719V25.7031H27.9844V14.7656ZM21.4219 14.7656H23.6094V25.7031H21.4219V14.7656ZM9.39062 14.7656H11.5781V25.7031H9.39062V14.7656ZM15.4062 14.7656H17.5938V25.7031H15.4062V14.7656Z" fill="white"/>
</svg>
