<svg width="40" height="44" viewBox="0 0 40 44" fill="none" xmlns="http://www.w3.org/2000/svg">
<path id="Vector" d="M14.5833 32.2917C14.5833 34.575 15.1479 36.7271 16.1458 38.6146V40.1042C16.1457 40.5 15.9953 40.8811 15.7251 41.1704C15.4548 41.4597 15.0848 41.6356 14.6898 41.6626C14.2949 41.6895 13.9044 41.5656 13.5973 41.3158C13.2902 41.0659 13.0894 40.7089 13.0354 40.3167L13.0208 40.1042V35.3792C9.56566 35.1226 6.32682 33.5995 3.92544 31.102C1.52406 28.6045 0.129194 25.3084 0.00833372 21.8458L0 21.3542V20.3125C0.000121339 19.9166 0.150509 19.5355 0.420776 19.2463C0.691043 18.957 1.06104 18.7811 1.456 18.7541C1.85096 18.7271 2.24144 18.8511 2.54854 19.1009C2.85564 19.3507 3.05646 19.7078 3.11042 20.1L3.125 20.3125V21.3542C3.12476 24.1772 4.21608 26.891 6.1707 28.928C8.12532 30.9649 10.7918 32.1672 13.6125 32.2833L14.0625 32.2917H14.5833ZM14.9479 29.1583C15.4441 27.0791 16.4246 25.1465 17.8094 23.518C19.1942 21.8896 20.9442 20.6113 22.9167 19.7875V8.33333C22.9167 6.1232 22.0387 4.00358 20.4759 2.44078C18.9131 0.877974 16.7935 0 14.5833 0C12.3732 0 10.2536 0.877974 8.69078 2.44078C7.12797 4.00358 6.25 6.1232 6.25 8.33333V20.8333C6.25005 21.9583 6.47789 23.0717 6.91979 24.1063C7.3617 25.1409 8.00851 26.0753 8.82124 26.8532C9.63398 27.6311 10.5958 28.2363 11.6488 28.6325C12.7017 29.0287 13.824 29.2076 14.9479 29.1583ZM39.5833 32.2917C39.5833 29.2527 38.3761 26.3383 36.2273 24.1894C34.0784 22.0405 31.1639 20.8333 28.125 20.8333C25.0861 20.8333 22.1716 22.0405 20.0227 24.1894C17.8739 26.3383 16.6667 29.2527 16.6667 32.2917C16.6667 35.3306 17.8739 38.2451 20.0227 40.3939C22.1716 42.5428 25.0861 43.75 28.125 43.75C31.1639 43.75 34.0784 42.5428 36.2273 40.3939C38.3761 38.2451 39.5833 35.3306 39.5833 32.2917ZM25.0312 26.0417C25.2448 26.0478 25.4512 26.1195 25.6227 26.247C25.7941 26.3744 25.9222 26.5515 25.9896 26.7542L28.1833 33.3375L30.275 27.7583C30.3463 27.5687 30.4714 27.404 30.6348 27.2844C30.7983 27.1648 30.9931 27.0954 31.1954 27.0848C31.3977 27.0742 31.5987 27.1228 31.7738 27.2247C31.9489 27.3265 32.0905 27.4772 32.1813 27.6583L33.9792 31.25H35.4167C35.6929 31.25 35.9579 31.3597 36.1532 31.5551C36.3486 31.7504 36.4583 32.0154 36.4583 32.2917C36.4583 32.5679 36.3486 32.8329 36.1532 33.0282C35.9579 33.2236 35.6929 33.3333 35.4167 33.3333H33.3333C33.14 33.3333 32.9506 33.2795 32.7861 33.178C32.6216 33.0764 32.4887 32.9311 32.4021 32.7583L31.3875 30.7271L29.1 36.825C29.0241 37.0262 28.8877 37.199 28.7096 37.3196C28.5316 37.4403 28.3205 37.5028 28.1055 37.4987C27.8905 37.4946 27.682 37.424 27.5087 37.2967C27.3353 37.1693 27.2057 36.9915 27.1375 36.7875L24.9104 30.1104L23.8833 32.6792C23.8059 32.8723 23.6725 33.0378 23.5002 33.1544C23.3279 33.2709 23.1247 33.3333 22.9167 33.3333H20.8333C20.5571 33.3333 20.2921 33.2236 20.0968 33.0282C19.9014 32.8329 19.7917 32.5679 19.7917 32.2917C19.7917 32.0154 19.9014 31.7504 20.0968 31.5551C20.2921 31.3597 20.5571 31.25 20.8333 31.25H22.2125L24.0333 26.6958C24.1126 26.4977 24.2509 26.3287 24.4293 26.2117C24.6078 26.0947 24.8179 26.0354 25.0312 26.0417Z" fill="url(#paint0_linear_158_142)"/>
<defs>
<linearGradient id="paint0_linear_158_142" x1="19.7917" y1="0" x2="19.7917" y2="43.75" gradientUnits="userSpaceOnUse">
<stop stop-color="#00FF75"/>
<stop offset="1" stop-color="#0038FF"/>
</linearGradient>
</defs>
</svg>
