<svg xmlns="http://www.w3.org/2000/svg" width="182.77" height="164.556" viewBox="0 0 182.77 164.556">
  <path id="FontAwsome_exclamation-triangle_" data-name="FontAwsome (exclamation-triangle)" d="M159.682,123.372a13.466,13.466,0,0,1-11.657,20.184H13.473A13.466,13.466,0,0,1,1.816,123.372L69.092,6.725a13.466,13.466,0,0,1,23.315,0l67.275,116.647ZM80.75,99.255a12.9,12.9,0,1,0,12.9,12.9A12.9,12.9,0,0,0,80.75,99.255ZM68.5,52.9l2.08,38.132a3.365,3.365,0,0,0,3.36,3.181H87.555a3.365,3.365,0,0,0,3.36-3.181L92.995,52.9a3.365,3.365,0,0,0-3.36-3.548H71.864A3.364,3.364,0,0,0,68.5,52.9Z" transform="translate(10.635 10.5)" fill="none" stroke="orange" stroke-width="3" opacity="0.4"/>
</svg>
