<svg xmlns="http://www.w3.org/2000/svg" width="21.321" height="21.321" viewBox="0 0 21.321 21.321">
  <path id="Icon_ionic-logo-linkedin" data-name="Icon ionic-logo-linkedin" d="M24.116,4.5H6.322A1.739,1.739,0,0,0,4.5,6.161V23.994a1.876,1.876,0,0,0,1.822,1.827H24.111a1.781,1.781,0,0,0,1.711-1.827V6.161A1.635,1.635,0,0,0,24.116,4.5ZM11.109,22.272H8.054v-9.5h3.055ZM9.687,11.331H9.665A1.568,1.568,0,0,1,8.054,9.693,1.577,1.577,0,0,1,9.7,8.054a1.573,1.573,0,0,1,1.633,1.638A1.577,1.577,0,0,1,9.687,11.331ZM22.272,22.272H19.218V17.079c0-1.244-.444-2.094-1.55-2.094A1.671,1.671,0,0,0,16.1,16.113a2.057,2.057,0,0,0-.106.75v5.409H12.942v-9.5H16V14.1a3.092,3.092,0,0,1,2.755-1.544c2,0,3.521,1.322,3.521,4.171v5.548Z" transform="translate(-4.5 -4.5)"/>
</svg>
