<svg xmlns="http://www.w3.org/2000/svg" width="26.186" height="16.366" viewBox="0 0 26.186 16.366">
  <path id="Icon_awesome-google-plus-g" data-name="Icon awesome-google-plus-g" d="M16.809,11.511a6.941,6.941,0,0,1,.134,1.362c0,4.678-3.137,7.993-7.859,7.993a8.183,8.183,0,0,1,0-16.366,7.817,7.817,0,0,1,5.481,2.143L12.343,8.776a4.6,4.6,0,0,0-3.26-1.262,5.17,5.17,0,0,0,0,10.338,4.432,4.432,0,0,0,4.644-3.528H9.083V11.511h7.725Zm7.9.274V9.41H22.324v2.375H19.949v2.387h2.375v2.375h2.387V14.172h2.375V11.785H24.711Z" transform="translate(-0.9 -4.5)"/>
</svg>
