<svg xmlns="http://www.w3.org/2000/svg" width="28.435" height="23.095" viewBox="0 0 28.435 23.095">
  <path id="Icon_awesome-twitter" data-name="Icon awesome-twitter" d="M25.513,9.136c.018.253.018.505.018.758,0,7.7-5.864,16.581-16.581,16.581A16.469,16.469,0,0,1,0,23.859a12.056,12.056,0,0,0,1.407.072,11.671,11.671,0,0,0,7.235-2.49A5.838,5.838,0,0,1,3.194,17.4a7.349,7.349,0,0,0,1.1.09,6.164,6.164,0,0,0,1.534-.2,5.829,5.829,0,0,1-4.673-5.72V11.5a5.869,5.869,0,0,0,2.634.74,5.837,5.837,0,0,1-1.8-7.794A16.565,16.565,0,0,0,14,10.544a6.579,6.579,0,0,1-.144-1.335A5.833,5.833,0,0,1,23.943,5.221a11.474,11.474,0,0,0,3.7-1.407,5.812,5.812,0,0,1-2.562,3.212,11.683,11.683,0,0,0,3.356-.9,12.528,12.528,0,0,1-2.923,3.013Z" transform="translate(0 -3.381)"/>
</svg>
