<svg xmlns="http://www.w3.org/2000/svg" width="27.547" height="26.858" viewBox="0 0 27.547 26.858">
  <path id="Icon_awesome-github" data-name="Icon awesome-github" d="M9.214,22.189c0,.111-.128.2-.289.2-.183.017-.311-.072-.311-.2,0-.111.128-.2.289-.2C9.069,21.972,9.214,22.061,9.214,22.189Zm-1.727-.25c-.039.111.072.239.239.272A.261.261,0,0,0,8.07,22.1c.033-.111-.072-.239-.239-.289A.285.285,0,0,0,7.487,21.939Zm2.455-.094c-.161.039-.272.144-.255.272.017.111.161.183.328.144s.272-.144.255-.255S10.1,21.828,9.941,21.845ZM13.6.563A13.317,13.317,0,0,0,0,14.114,13.924,13.924,0,0,0,9.414,27.4c.711.128.961-.311.961-.672,0-.344-.017-2.244-.017-3.41,0,0-3.888.833-4.7-1.655,0,0-.633-1.616-1.544-2.033,0,0-1.272-.872.089-.855a2.932,2.932,0,0,1,2.144,1.433,2.936,2.936,0,0,0,4.049,1.161A3.087,3.087,0,0,1,11.28,19.5c-3.1-.344-6.237-.794-6.237-6.137a4.209,4.209,0,0,1,1.311-3.271A5.247,5.247,0,0,1,6.5,6.316c1.161-.361,3.832,1.5,3.832,1.5a13.12,13.12,0,0,1,6.976,0s2.671-1.866,3.832-1.5a5.245,5.245,0,0,1,.144,3.771,4.317,4.317,0,0,1,1.433,3.271c0,5.359-3.271,5.787-6.376,6.137a3.284,3.284,0,0,1,.944,2.577c0,1.872-.017,4.188-.017,4.643,0,.361.255.8.961.672a13.8,13.8,0,0,0,9.319-13.274A13.618,13.618,0,0,0,13.6.563ZM5.4,19.718c-.072.056-.056.183.039.289.089.089.217.128.289.056.072-.056.056-.183-.039-.289C5.6,19.684,5.471,19.645,5.4,19.718Zm-.6-.45c-.039.072.017.161.128.217a.165.165,0,0,0,.239-.039c.039-.072-.017-.161-.128-.217C4.926,19.2,4.837,19.212,4.8,19.268Zm1.8,1.977c-.089.072-.056.239.072.344.128.128.289.144.361.056.072-.072.039-.239-.072-.344C6.837,21.173,6.67,21.156,6.6,21.245Zm-.633-.816c-.089.056-.089.2,0,.328s.239.183.311.128a.253.253,0,0,0,0-.344C6.2,20.412,6.054,20.356,5.965,20.428Z" transform="translate(0 -0.563)"/>
</svg>
