<svg xmlns="http://www.w3.org/2000/svg" width="28.436" height="28.436" viewBox="0 0 28.436 28.436">
  <path id="Icon_simple-instagram" data-name="Icon simple-instagram" d="M14.218,0C10.355,0,9.873.018,8.356.085A10.484,10.484,0,0,0,4.905.746a6.963,6.963,0,0,0-2.519,1.64A6.937,6.937,0,0,0,.746,4.905,10.453,10.453,0,0,0,.085,8.356C.014,9.873,0,10.355,0,14.218s.018,4.345.085,5.861A10.49,10.49,0,0,0,.746,23.53a6.972,6.972,0,0,0,1.64,2.519,6.953,6.953,0,0,0,2.519,1.64,10.5,10.5,0,0,0,3.451.661c1.517.071,2,.085,5.861.085s4.345-.018,5.861-.085a10.521,10.521,0,0,0,3.451-.661,7.266,7.266,0,0,0,4.159-4.159,10.49,10.49,0,0,0,.661-3.451c.071-1.517.085-2,.085-5.861s-.018-4.345-.085-5.861a10.515,10.515,0,0,0-.661-3.451,6.978,6.978,0,0,0-1.64-2.519A6.927,6.927,0,0,0,23.53.746,10.46,10.46,0,0,0,20.079.085C18.562.014,18.08,0,14.218,0Zm0,2.559c3.795,0,4.248.019,5.746.084a7.833,7.833,0,0,1,2.639.492,4.679,4.679,0,0,1,2.7,2.7,7.85,7.85,0,0,1,.489,2.639c.068,1.5.083,1.95.083,5.746s-.018,4.248-.088,5.746a8,8,0,0,1-.5,2.639,4.514,4.514,0,0,1-1.065,1.637A4.436,4.436,0,0,1,22.587,25.3a7.908,7.908,0,0,1-2.648.489c-1.509.068-1.954.083-5.757.083s-4.249-.018-5.757-.088a8.062,8.062,0,0,1-2.649-.5,4.4,4.4,0,0,1-1.634-1.065,4.317,4.317,0,0,1-1.066-1.635,8.069,8.069,0,0,1-.5-2.648c-.053-1.493-.072-1.954-.072-5.739s.019-4.249.072-5.759a8.06,8.06,0,0,1,.5-2.647A4.215,4.215,0,0,1,4.142,4.158,4.205,4.205,0,0,1,5.776,3.094a7.869,7.869,0,0,1,2.631-.5c1.511-.053,1.955-.071,5.757-.071l.053.036Zm0,4.358a7.3,7.3,0,1,0,7.3,7.3A7.3,7.3,0,0,0,14.218,6.917Zm0,12.04a4.739,4.739,0,1,1,4.739-4.739A4.738,4.738,0,0,1,14.218,18.957Zm9.3-12.328a1.706,1.706,0,1,1-1.706-1.7A1.707,1.707,0,0,1,23.514,6.629Z"/>
</svg>
