<svg xmlns="http://www.w3.org/2000/svg" width="30.025" height="30.438" viewBox="0 0 30.025 30.438">
  <path id="Path_115" data-name="Path 115" d="M82.949,111.689a15.608,15.608,0,0,0-14.919,10.7h2.211a12.751,12.751,0,0,1,.822-1.77h4.255a17.931,17.931,0,0,0-.464,1.77h2.155a16.633,16.633,0,0,1,.543-1.77h4.106v1.77h2.081v-1.77h4.436a15.52,15.52,0,0,1,.608,1.77h2.155a17.405,17.405,0,0,0-.52-1.77h4.417a12.746,12.746,0,0,1,.822,1.77h2.206A15.6,15.6,0,0,0,82.949,111.689Zm3.14,2.448a13.555,13.555,0,0,1,7.3,4.4h-3.86A14.6,14.6,0,0,0,86.089,114.137Zm-6.888.153a13.818,13.818,0,0,0-3.066,4.25H72.512A13.538,13.538,0,0,1,79.2,114.29Zm4.538.669A11.993,11.993,0,0,1,87.1,118.54H83.739Zm-2.081.014v3.567H78.523A11.016,11.016,0,0,1,81.658,114.973ZM68.652,124.4a.889.889,0,0,0-.52.144.428.428,0,0,0-.209.358,1.373,1.373,0,0,0,.1.437l1.105,3.177c.034.095.072.2.116.316a1.086,1.086,0,0,0,.177.3.726.726,0,0,0,.293.2,1.232,1.232,0,0,0,.464.074,1.063,1.063,0,0,0,.553-.125.758.758,0,0,0,.293-.274,4.981,4.981,0,0,0,.2-.469l.989-2.787.985,2.8c.082.208.147.361.2.46a.736.736,0,0,0,.288.274,1.092,1.092,0,0,0,.557.121,1.076,1.076,0,0,0,.571-.125A.749.749,0,0,0,75.1,129a4.6,4.6,0,0,0,.19-.483L76.4,125.34a1.526,1.526,0,0,0,.1-.437.424.424,0,0,0-.214-.358.9.9,0,0,0-.516-.144.818.818,0,0,0-.469.111.636.636,0,0,0-.223.246,2.6,2.6,0,0,0-.125.348l-.78,2.7L73.3,125.28a4.735,4.735,0,0,0-.2-.464.8.8,0,0,0-.293-.283,1.111,1.111,0,0,0-.59-.13,1.171,1.171,0,0,0-.59.125.807.807,0,0,0-.311.293,3.37,3.37,0,0,0-.2.46l-.869,2.531-.785-2.722a1.545,1.545,0,0,0-.237-.5A.687.687,0,0,0,68.652,124.4Zm10.7,0a.889.889,0,0,0-.52.144.428.428,0,0,0-.209.358,1.408,1.408,0,0,0,.1.437l1.105,3.177c.034.095.072.2.116.316a1.075,1.075,0,0,0,.172.3.726.726,0,0,0,.293.2,1.232,1.232,0,0,0,.464.074,1.081,1.081,0,0,0,.557-.125.742.742,0,0,0,.288-.274,4.985,4.985,0,0,0,.2-.469l.989-2.787.985,2.8c.082.208.147.361.2.46a.737.737,0,0,0,.288.274,1.092,1.092,0,0,0,.557.121,1.076,1.076,0,0,0,.571-.125A.749.749,0,0,0,85.8,129a4.6,4.6,0,0,0,.19-.483l1.105-3.177a1.527,1.527,0,0,0,.1-.437.424.424,0,0,0-.214-.358.9.9,0,0,0-.516-.144.818.818,0,0,0-.469.111.636.636,0,0,0-.223.246,2.6,2.6,0,0,0-.125.348l-.78,2.7-.873-2.531a4.732,4.732,0,0,0-.2-.464.78.78,0,0,0-.288-.283,1.111,1.111,0,0,0-.59-.13,1.19,1.19,0,0,0-.595.125.807.807,0,0,0-.311.293,3.371,3.371,0,0,0-.2.46l-.869,2.531-.785-2.722a1.544,1.544,0,0,0-.232-.5A.7.7,0,0,0,79.349,124.4Zm10.7,0a.889.889,0,0,0-.52.144.428.428,0,0,0-.209.358,1.408,1.408,0,0,0,.1.437l1.105,3.177c.034.095.072.2.116.316a1.075,1.075,0,0,0,.172.3.726.726,0,0,0,.293.2,1.232,1.232,0,0,0,.464.074,1.081,1.081,0,0,0,.557-.125.742.742,0,0,0,.288-.274,4.759,4.759,0,0,0,.209-.469l.985-2.787.985,2.8c.082.208.147.361.2.46a.736.736,0,0,0,.288.274,1.092,1.092,0,0,0,.557.121,1.076,1.076,0,0,0,.571-.125.749.749,0,0,0,.283-.288,4.605,4.605,0,0,0,.19-.483l1.105-3.177a1.527,1.527,0,0,0,.1-.437.419.419,0,0,0-.209-.358.91.91,0,0,0-.52-.144.818.818,0,0,0-.469.111.636.636,0,0,0-.223.246,2.6,2.6,0,0,0-.125.348l-.776,2.7-.878-2.531a4.737,4.737,0,0,0-.2-.464.78.78,0,0,0-.288-.283,1.112,1.112,0,0,0-.59-.13,1.19,1.19,0,0,0-.595.125.807.807,0,0,0-.311.293,3.371,3.371,0,0,0-.2.46l-.869,2.531-.78-2.722a1.545,1.545,0,0,0-.237-.5A.7.7,0,0,0,90.047,124.4Zm-22.1,6.749a15.735,15.735,0,0,0,30,0h-2.2A12.815,12.815,0,0,1,95,132.883H90.539a17.7,17.7,0,0,0,.478-1.733H88.895a14.547,14.547,0,0,1-.543,1.733H83.739v-1.733H81.658v1.733H77.445a17.6,17.6,0,0,1-.492-1.733H74.816c.12.587.266,1.166.432,1.733H70.9a12.84,12.84,0,0,1-.757-1.733Zm4.315,3.813H76a13.213,13.213,0,0,0,3.07,4.529A13.508,13.508,0,0,1,72.266,134.964Zm6.048,0h3.344v3.888A9.914,9.914,0,0,1,78.314,134.964Zm5.425,0h3.577a11.4,11.4,0,0,1-3.577,3.79Zm5.969,0h3.925a13.534,13.534,0,0,1-7.646,4.742A14.009,14.009,0,0,0,89.708,134.964Z" transform="translate(-67.923 -111.688)"/>
</svg>
